<svg width="286" height="64" viewBox="0 0 286 64" fill="none" xmlns="http://www.w3.org/2000/svg">
<path d="M32 18.6667C32 15.8377 30.8762 13.1246 28.8758 11.1242C26.8754 9.12381 24.1623 8 21.3333 8H5.33333V48H24C26.1217 48 28.1566 48.8429 29.6569 50.3431C31.1571 51.8434 32 53.8783 32 56M32 18.6667V56M32 18.6667C32 15.8377 33.1238 13.1246 35.1242 11.1242C37.1246 9.12381 39.8377 8 42.6667 8H58.6667V48H40C37.8783 48 35.8434 48.8429 34.3431 50.3431C32.8429 51.8434 32 53.8783 32 56" stroke="#FFDD4A" stroke-width="8" stroke-linecap="round" stroke-linejoin="round"/>
<path d="M82.432 43.352C81.5787 43.352 80.6827 43.288 79.744 43.16C78.8267 43.0533 77.952 42.8827 77.12 42.648C76.288 42.4133 75.5413 42.136 74.88 41.816C74.304 41.5387 73.8987 41.176 73.664 40.728C73.4293 40.2587 73.344 39.768 73.408 39.256C73.472 38.744 73.6533 38.296 73.952 37.912C74.2507 37.5067 74.6453 37.24 75.136 37.112C75.6267 36.9627 76.1813 37.0267 76.8 37.304C77.6107 37.688 78.528 37.9867 79.552 38.2C80.576 38.4133 81.536 38.52 82.432 38.52C83.84 38.52 84.8213 38.3387 85.376 37.976C85.952 37.592 86.24 37.1227 86.24 36.568C86.24 36.0773 86.0373 35.6827 85.632 35.384C85.248 35.0853 84.5547 34.8293 83.552 34.616L79.808 33.816C77.76 33.3893 76.2347 32.6427 75.232 31.576C74.2293 30.5093 73.728 29.1333 73.728 27.448C73.728 26.3387 73.952 25.336 74.4 24.44C74.8693 23.5227 75.52 22.744 76.352 22.104C77.2053 21.464 78.208 20.9733 79.36 20.632C80.5333 20.2693 81.8347 20.088 83.264 20.088C84.3733 20.088 85.4933 20.216 86.624 20.472C87.776 20.7067 88.768 21.0693 89.6 21.56C90.0907 21.816 90.4427 22.168 90.656 22.616C90.8693 23.064 90.9547 23.5333 90.912 24.024C90.8693 24.4933 90.6987 24.9093 90.4 25.272C90.1227 25.6347 89.7387 25.88 89.248 26.008C88.7787 26.1147 88.2133 26.0293 87.552 25.752C86.9333 25.4747 86.2293 25.272 85.44 25.144C84.672 24.9947 83.9253 24.92 83.2 24.92C82.4107 24.92 81.7387 25.016 81.184 25.208C80.6293 25.3787 80.2027 25.6347 79.904 25.976C79.6267 26.3173 79.488 26.712 79.488 27.16C79.488 27.608 79.6693 27.992 80.032 28.312C80.416 28.6107 81.1093 28.8667 82.112 29.08L85.824 29.88C87.8933 30.328 89.44 31.064 90.464 32.088C91.488 33.112 92 34.4453 92 36.088C92 37.1973 91.776 38.2 91.328 39.096C90.88 39.992 90.24 40.76 89.408 41.4C88.576 42.0187 87.5733 42.4987 86.4 42.84C85.2267 43.1813 83.904 43.352 82.432 43.352ZM103.222 43.288C102.433 43.288 101.793 43.1067 101.302 42.744C100.812 42.36 100.428 41.7733 100.15 40.984L93.9103 23.608C93.5689 22.648 93.6223 21.8373 94.0703 21.176C94.5396 20.4933 95.3609 20.152 96.5343 20.152C97.3236 20.152 97.9423 20.344 98.3903 20.728C98.8383 21.0907 99.1903 21.6667 99.4463 22.456L104.214 36.76H102.71L107.83 22.456C108.129 21.6667 108.502 21.0907 108.95 20.728C109.398 20.344 109.974 20.152 110.678 20.152C111.382 20.152 111.948 20.344 112.374 20.728C112.801 21.0907 113.153 21.6773 113.43 22.488L118.23 36.76H116.95L121.846 22.456C122.102 21.6667 122.444 21.0907 122.87 20.728C123.318 20.344 123.937 20.152 124.726 20.152C125.708 20.152 126.422 20.4933 126.87 21.176C127.34 21.8373 127.393 22.648 127.03 23.608L120.726 41.016C120.449 41.784 120.065 42.36 119.574 42.744C119.105 43.1067 118.476 43.288 117.686 43.288C116.876 43.288 116.225 43.1067 115.734 42.744C115.265 42.36 114.892 41.7733 114.614 40.984L110.102 28.312H110.902L106.294 41.016C105.996 41.784 105.612 42.36 105.142 42.744C104.673 43.1067 104.033 43.288 103.222 43.288ZM133.62 43C132.617 43 131.849 42.744 131.316 42.232C130.804 41.6987 130.548 40.9413 130.548 39.96V23.48C130.548 22.4987 130.804 21.752 131.316 21.24C131.849 20.7067 132.617 20.44 133.62 20.44H144.468C145.236 20.44 145.812 20.632 146.196 21.016C146.58 21.4 146.772 21.9547 146.772 22.68C146.772 23.4267 146.58 24.0027 146.196 24.408C145.812 24.792 145.236 24.984 144.468 24.984H136.18V29.272H143.764C144.511 29.272 145.076 29.464 145.46 29.848C145.865 30.232 146.068 30.7973 146.068 31.544C146.068 32.2907 145.865 32.856 145.46 33.24C145.076 33.624 144.511 33.816 143.764 33.816H136.18V38.456H144.468C145.236 38.456 145.812 38.6587 146.196 39.064C146.58 39.448 146.772 40.0027 146.772 40.728C146.772 41.4747 146.58 42.04 146.196 42.424C145.812 42.808 145.236 43 144.468 43H133.62ZM153.276 43C152.274 43 151.506 42.744 150.972 42.232C150.46 41.6987 150.204 40.9413 150.204 39.96V23.48C150.204 22.4987 150.46 21.752 150.972 21.24C151.506 20.7067 152.274 20.44 153.276 20.44H164.124C164.892 20.44 165.468 20.632 165.852 21.016C166.236 21.4 166.428 21.9547 166.428 22.68C166.428 23.4267 166.236 24.0027 165.852 24.408C165.468 24.792 164.892 24.984 164.124 24.984H155.836V29.272H163.42C164.167 29.272 164.732 29.464 165.116 29.848C165.522 30.232 165.724 30.7973 165.724 31.544C165.724 32.2907 165.522 32.856 165.116 33.24C164.732 33.624 164.167 33.816 163.42 33.816H155.836V38.456H164.124C164.892 38.456 165.468 38.6587 165.852 39.064C166.236 39.448 166.428 40.0027 166.428 40.728C166.428 41.4747 166.236 42.04 165.852 42.424C165.468 42.808 164.892 43 164.124 43H153.276ZM178.273 43.288C177.334 43.288 176.609 43.032 176.097 42.52C175.585 41.9867 175.329 41.2507 175.329 40.312V25.24H170.305C169.515 25.24 168.907 25.0373 168.481 24.632C168.075 24.2053 167.873 23.608 167.873 22.84C167.873 22.0507 168.075 21.4533 168.481 21.048C168.907 20.6427 169.515 20.44 170.305 20.44H186.241C187.03 20.44 187.627 20.6427 188.033 21.048C188.459 21.4533 188.673 22.0507 188.673 22.84C188.673 23.608 188.459 24.2053 188.033 24.632C187.627 25.0373 187.03 25.24 186.241 25.24H181.217V40.312C181.217 41.2507 180.971 41.9867 180.481 42.52C179.99 43.032 179.254 43.288 178.273 43.288ZM201.613 43.288C200.717 43.288 200.034 43.0533 199.565 42.584C199.095 42.1147 198.861 41.4213 198.861 40.504V23.064C198.861 22.1253 199.095 21.4107 199.565 20.92C200.034 20.408 200.653 20.152 201.421 20.152C202.103 20.152 202.637 20.28 203.021 20.536C203.405 20.792 203.831 21.2187 204.301 21.816L214.444 34.488H213.549V22.904C213.549 22.008 213.773 21.3253 214.221 20.856C214.69 20.3867 215.373 20.152 216.269 20.152C217.165 20.152 217.837 20.3867 218.285 20.856C218.754 21.3253 218.989 22.008 218.989 22.904V40.632C218.989 41.4427 218.775 42.0933 218.349 42.584C217.922 43.0533 217.346 43.288 216.621 43.288C215.895 43.288 215.319 43.16 214.892 42.904C214.487 42.6267 214.05 42.2 213.581 41.624L203.437 28.92H204.333V40.504C204.333 41.4213 204.098 42.1147 203.629 42.584C203.181 43.0533 202.509 43.288 201.613 43.288ZM233.991 43.352C231.708 43.352 229.703 42.872 227.975 41.912C226.247 40.9307 224.903 39.5653 223.943 37.816C223.004 36.0667 222.535 34.0293 222.535 31.704C222.535 29.9547 222.801 28.3653 223.335 26.936C223.889 25.5067 224.668 24.28 225.671 23.256C226.695 22.232 227.911 21.4533 229.319 20.92C230.727 20.3653 232.284 20.088 233.991 20.088C236.273 20.088 238.268 20.568 239.975 21.528C241.703 22.488 243.047 23.8427 244.007 25.592C244.967 27.32 245.447 29.3573 245.447 31.704C245.447 33.4533 245.169 35.0427 244.615 36.472C244.081 37.9013 243.303 39.1387 242.279 40.184C241.276 41.208 240.071 41.9973 238.663 42.552C237.255 43.0853 235.697 43.352 233.991 43.352ZM233.991 38.424C235.121 38.424 236.081 38.1573 236.871 37.624C237.66 37.0907 238.268 36.3227 238.694 35.32C239.121 34.3173 239.335 33.112 239.335 31.704C239.335 29.592 238.865 27.9493 237.927 26.776C236.988 25.6027 235.676 25.016 233.991 25.016C232.881 25.016 231.921 25.2827 231.111 25.816C230.321 26.328 229.713 27.0853 229.286 28.088C228.86 29.0693 228.647 30.2747 228.647 31.704C228.647 33.816 229.116 35.4693 230.055 36.664C230.993 37.8373 232.305 38.424 233.991 38.424ZM255.867 43.288C254.928 43.288 254.203 43.032 253.691 42.52C253.179 41.9867 252.923 41.2507 252.923 40.312V25.24H247.899C247.109 25.24 246.501 25.0373 246.075 24.632C245.669 24.2053 245.466 23.608 245.466 22.84C245.466 22.0507 245.669 21.4533 246.075 21.048C246.501 20.6427 247.109 20.44 247.899 20.44H263.835C264.624 20.44 265.221 20.6427 265.627 21.048C266.053 21.4533 266.267 22.0507 266.267 22.84C266.267 23.608 266.053 24.2053 265.627 24.632C265.221 25.0373 264.624 25.24 263.835 25.24H258.811V40.312C258.811 41.2507 258.565 41.9867 258.075 42.52C257.584 43.032 256.848 43.288 255.867 43.288ZM271.276 43C270.274 43 269.506 42.744 268.972 42.232C268.46 41.6987 268.204 40.9413 268.204 39.96V23.48C268.204 22.4987 268.46 21.752 268.972 21.24C269.506 20.7067 270.274 20.44 271.276 20.44H282.124C282.892 20.44 283.468 20.632 283.852 21.016C284.236 21.4 284.428 21.9547 284.428 22.68C284.428 23.4267 284.236 24.0027 283.852 24.408C283.468 24.792 282.892 24.984 282.124 24.984H273.836V29.272H281.42C282.167 29.272 282.732 29.464 283.116 29.848C283.522 30.232 283.724 30.7973 283.724 31.544C283.724 32.2907 283.522 32.856 283.116 33.24C282.732 33.624 282.167 33.816 281.42 33.816H273.836V38.456H282.124C282.892 38.456 283.468 38.6587 283.852 39.064C284.236 39.448 284.428 40.0027 284.428 40.728C284.428 41.4747 284.236 42.04 283.852 42.424C283.468 42.808 282.892 43 282.124 43H271.276Z" fill="#FFDD4A"/>
</svg>
